<svg width="18" height="18" viewBox="0 0 18 18" fill="none" xmlns="http://www.w3.org/2000/svg">
<path d="M15.4609 6.3375C14.6734 2.8725 11.6509 1.3125 8.99592 1.3125C8.99592 1.3125 8.99592 1.3125 8.98842 1.3125C6.34092 1.3125 3.31092 2.865 2.52342 6.33C1.64592 10.2 4.01592 13.4775 6.16092 15.54C6.95592 16.305 7.97592 16.6875 8.99592 16.6875C10.0159 16.6875 11.0359 16.305 11.8234 15.54C13.9684 13.4775 16.3384 10.2075 15.4609 6.3375ZM8.99592 10.095C7.69092 10.095 6.63342 9.0375 6.63342 7.7325C6.63342 6.4275 7.69092 5.37 8.99592 5.37C10.3009 5.37 11.3584 6.4275 11.3584 7.7325C11.3584 9.0375 10.3009 10.095 8.99592 10.095Z" fill="#35AAFD"/>
</svg>
