<svg width="249" height="170" viewBox="0 0 249 170" fill="none" xmlns="http://www.w3.org/2000/svg">
<path d="M145.513 24.2149C153.379 24.217 161.097 26.0578 167.846 29.5413C174.594 33.0247 180.119 38.0204 183.833 43.9962C187.548 49.972 189.312 56.704 188.937 63.4754C188.563 70.2468 186.064 76.8039 181.708 82.4482L189 99.1687L164.58 95.3633C158.7 97.8397 152.247 99.1403 145.703 99.1682C139.158 99.1962 132.69 97.9507 126.782 95.5247C120.874 93.0986 115.677 89.5546 111.579 85.1568C107.481 80.759 104.588 75.6208 103.115 70.1253C101.643 64.6298 101.628 58.9186 103.073 53.4176C104.518 47.9166 107.385 42.7676 111.461 38.3544C115.536 33.9412 120.715 30.3777 126.611 27.9295C132.507 25.4813 138.968 24.2115 145.513 24.2149Z" fill="#D8E4FF"/>
<path d="M103.487 0.953132C95.6209 0.955242 87.9027 2.79607 81.1544 6.27954C74.4062 9.76302 68.8807 14.7587 65.1665 20.7345C61.4523 26.7102 59.6884 33.4423 60.0628 40.2137C60.4372 46.9851 62.9358 53.5421 67.2925 59.1865L60 75.907L84.4197 72.1016C90.2999 74.578 96.7528 75.8786 103.297 75.9065C109.842 75.9344 116.31 74.689 122.218 72.2629C128.126 69.8369 133.323 66.2929 137.421 61.8951C141.519 57.4973 144.412 52.3591 145.885 46.8636C147.357 41.368 147.372 35.6569 145.927 30.1559C144.482 24.6549 141.615 19.5059 137.539 15.0927C133.464 10.6795 128.285 7.116 122.389 4.66778C116.493 2.21957 110.032 0.949802 103.487 0.953132Z" fill="#004AE0"/>
<path d="M15.9545 146.545V164H13.9091L4.39773 150.295H4.22727V164H2.11364V146.545H4.15909L13.7045 160.284H13.875V146.545H15.9545ZM25.2294 164.273C24.0476 164.273 23.0107 163.991 22.1186 163.429C21.2322 162.866 20.5391 162.08 20.0391 161.068C19.5447 160.057 19.2976 158.875 19.2976 157.523C19.2976 156.159 19.5447 154.969 20.0391 153.952C20.5391 152.935 21.2322 152.145 22.1186 151.582C23.0107 151.02 24.0476 150.739 25.2294 150.739C26.4112 150.739 27.4453 151.02 28.3317 151.582C29.2237 152.145 29.9169 152.935 30.4112 153.952C30.9112 154.969 31.1612 156.159 31.1612 157.523C31.1612 158.875 30.9112 160.057 30.4112 161.068C29.9169 162.08 29.2237 162.866 28.3317 163.429C27.4453 163.991 26.4112 164.273 25.2294 164.273ZM25.2294 162.466C26.1271 162.466 26.8658 162.236 27.4453 161.776C28.0249 161.315 28.4538 160.71 28.7322 159.96C29.0107 159.21 29.1499 158.398 29.1499 157.523C29.1499 156.648 29.0107 155.832 28.7322 155.077C28.4538 154.321 28.0249 153.71 27.4453 153.244C26.8658 152.778 26.1271 152.545 25.2294 152.545C24.3317 152.545 23.593 152.778 23.0135 153.244C22.4339 153.71 22.005 154.321 21.7266 155.077C21.4482 155.832 21.3089 156.648 21.3089 157.523C21.3089 158.398 21.4482 159.21 21.7266 159.96C22.005 160.71 22.4339 161.315 23.0135 161.776C23.593 162.236 24.3317 162.466 25.2294 162.466ZM41.2543 146.545H43.777L49.7088 161.034H49.9134L55.8452 146.545H58.3679V164H56.3906V150.739H56.2202L50.7656 164H48.8565L43.402 150.739H43.2315V164H41.2543V146.545ZM67.8217 164.273C66.5604 164.273 65.4723 163.994 64.5575 163.438C63.6484 162.875 62.9467 162.091 62.4524 161.085C61.9638 160.074 61.7195 158.898 61.7195 157.557C61.7195 156.216 61.9638 155.034 62.4524 154.011C62.9467 152.983 63.6342 152.182 64.5149 151.608C65.4013 151.028 66.4354 150.739 67.6172 150.739C68.299 150.739 68.9723 150.852 69.6371 151.08C70.3018 151.307 70.907 151.676 71.4524 152.188C71.9979 152.693 72.4325 153.364 72.7564 154.199C73.0803 155.034 73.2422 156.062 73.2422 157.284V158.136H63.1513V156.398H71.1967C71.1967 155.659 71.049 155 70.7536 154.42C70.4638 153.841 70.049 153.384 69.5092 153.048C68.9751 152.713 68.3445 152.545 67.6172 152.545C66.8161 152.545 66.1229 152.744 65.5376 153.142C64.9581 153.534 64.5121 154.045 64.1996 154.676C63.8871 155.307 63.7308 155.983 63.7308 156.705V157.864C63.7308 158.852 63.9013 159.69 64.2422 160.378C64.5888 161.06 65.0689 161.58 65.6825 161.938C66.2962 162.29 67.0092 162.466 67.8217 162.466C68.3501 162.466 68.8274 162.392 69.2536 162.244C69.6854 162.091 70.0575 161.864 70.37 161.562C70.6825 161.256 70.924 160.875 71.0945 160.42L73.0376 160.966C72.8331 161.625 72.4893 162.205 72.0064 162.705C71.5234 163.199 70.9268 163.585 70.2166 163.864C69.5064 164.136 68.7081 164.273 67.8217 164.273ZM85.5746 153.841L83.7678 154.352C83.6541 154.051 83.4865 153.759 83.2649 153.474C83.049 153.185 82.7536 152.946 82.3786 152.759C82.0036 152.571 81.5234 152.477 80.9382 152.477C80.1371 152.477 79.4695 152.662 78.9354 153.031C78.407 153.395 78.1428 153.858 78.1428 154.42C78.1428 154.92 78.3246 155.315 78.6882 155.605C79.0518 155.895 79.62 156.136 80.3928 156.33L82.3359 156.807C83.5064 157.091 84.3786 157.526 84.9524 158.111C85.5263 158.69 85.8132 159.437 85.8132 160.352C85.8132 161.102 85.5973 161.773 85.1655 162.364C84.7393 162.955 84.1428 163.42 83.3757 163.761C82.6087 164.102 81.7166 164.273 80.6996 164.273C79.3643 164.273 78.2592 163.983 77.3842 163.403C76.5092 162.824 75.9553 161.977 75.7223 160.864L77.6314 160.386C77.8132 161.091 78.157 161.619 78.6626 161.972C79.174 162.324 79.8416 162.5 80.6655 162.5C81.603 162.5 82.3473 162.301 82.8984 161.903C83.4553 161.5 83.7337 161.017 83.7337 160.455C83.7337 160 83.5746 159.619 83.2564 159.312C82.9382 159 82.4496 158.767 81.7905 158.614L79.6087 158.102C78.4098 157.818 77.5291 157.378 76.9666 156.781C76.4098 156.179 76.1314 155.426 76.1314 154.523C76.1314 153.784 76.3388 153.131 76.7536 152.562C77.174 151.994 77.745 151.548 78.4666 151.224C79.1939 150.901 80.0178 150.739 80.9382 150.739C82.2337 150.739 83.2507 151.023 83.9893 151.591C84.7337 152.159 85.2621 152.909 85.5746 153.841ZM98.1136 153.841L96.3068 154.352C96.1932 154.051 96.0256 153.759 95.804 153.474C95.5881 153.185 95.2926 152.946 94.9176 152.759C94.5426 152.571 94.0625 152.477 93.4773 152.477C92.6761 152.477 92.0085 152.662 91.4744 153.031C90.946 153.395 90.6818 153.858 90.6818 154.42C90.6818 154.92 90.8636 155.315 91.2273 155.605C91.5909 155.895 92.1591 156.136 92.9318 156.33L94.875 156.807C96.0455 157.091 96.9176 157.526 97.4915 158.111C98.0653 158.69 98.3523 159.437 98.3523 160.352C98.3523 161.102 98.1364 161.773 97.7045 162.364C97.2784 162.955 96.6818 163.42 95.9148 163.761C95.1477 164.102 94.2557 164.273 93.2386 164.273C91.9034 164.273 90.7983 163.983 89.9233 163.403C89.0483 162.824 88.4943 161.977 88.2614 160.864L90.1705 160.386C90.3523 161.091 90.696 161.619 91.2017 161.972C91.7131 162.324 92.3807 162.5 93.2045 162.5C94.142 162.5 94.8864 162.301 95.4375 161.903C95.9943 161.5 96.2727 161.017 96.2727 160.455C96.2727 160 96.1136 159.619 95.7955 159.312C95.4773 159 94.9886 158.767 94.3295 158.614L92.1477 158.102C90.9489 157.818 90.0682 157.378 89.5057 156.781C88.9489 156.179 88.6705 155.426 88.6705 154.523C88.6705 153.784 88.8778 153.131 89.2926 152.562C89.7131 151.994 90.2841 151.548 91.0057 151.224C91.733 150.901 92.5568 150.739 93.4773 150.739C94.7727 150.739 95.7898 151.023 96.5284 151.591C97.2727 152.159 97.8011 152.909 98.1136 153.841ZM105.232 164.307C104.403 164.307 103.65 164.151 102.974 163.838C102.298 163.52 101.761 163.062 101.363 162.466C100.965 161.864 100.766 161.136 100.766 160.284C100.766 159.534 100.914 158.926 101.21 158.46C101.505 157.989 101.9 157.619 102.394 157.352C102.888 157.085 103.434 156.886 104.031 156.756C104.633 156.619 105.238 156.511 105.846 156.432C106.641 156.33 107.286 156.253 107.781 156.202C108.281 156.145 108.644 156.051 108.871 155.92C109.104 155.79 109.221 155.562 109.221 155.239V155.17C109.221 154.33 108.991 153.676 108.531 153.21C108.076 152.744 107.386 152.511 106.46 152.511C105.499 152.511 104.746 152.722 104.201 153.142C103.656 153.562 103.272 154.011 103.05 154.489L101.141 153.807C101.482 153.011 101.937 152.392 102.505 151.949C103.079 151.5 103.704 151.187 104.38 151.011C105.062 150.83 105.732 150.739 106.391 150.739C106.812 150.739 107.295 150.79 107.84 150.892C108.391 150.989 108.923 151.19 109.434 151.497C109.951 151.804 110.38 152.267 110.721 152.886C111.062 153.506 111.232 154.335 111.232 155.375V164H109.221V162.227H109.119C108.982 162.511 108.755 162.815 108.437 163.139C108.119 163.463 107.695 163.739 107.167 163.966C106.638 164.193 105.994 164.307 105.232 164.307ZM105.539 162.5C106.335 162.5 107.005 162.344 107.55 162.031C108.102 161.719 108.516 161.315 108.795 160.821C109.079 160.327 109.221 159.807 109.221 159.261V157.42C109.136 157.523 108.948 157.616 108.658 157.702C108.374 157.781 108.045 157.852 107.67 157.915C107.3 157.972 106.94 158.023 106.587 158.068C106.241 158.108 105.96 158.142 105.744 158.17C105.221 158.239 104.732 158.349 104.278 158.503C103.829 158.651 103.465 158.875 103.187 159.176C102.914 159.472 102.778 159.875 102.778 160.386C102.778 161.085 103.036 161.614 103.553 161.972C104.076 162.324 104.738 162.5 105.539 162.5ZM120.188 169.182C119.216 169.182 118.381 169.057 117.682 168.807C116.983 168.562 116.401 168.239 115.935 167.835C115.474 167.438 115.108 167.011 114.835 166.557L116.438 165.432C116.619 165.67 116.849 165.943 117.128 166.25C117.406 166.562 117.787 166.832 118.27 167.06C118.759 167.293 119.398 167.409 120.188 167.409C121.244 167.409 122.116 167.153 122.804 166.642C123.491 166.131 123.835 165.33 123.835 164.239V161.58H123.665C123.517 161.818 123.307 162.114 123.034 162.466C122.767 162.812 122.381 163.122 121.875 163.395C121.375 163.662 120.699 163.795 119.847 163.795C118.79 163.795 117.841 163.545 117 163.045C116.165 162.545 115.503 161.818 115.014 160.864C114.531 159.909 114.29 158.75 114.29 157.386C114.29 156.045 114.526 154.878 114.997 153.884C115.469 152.884 116.125 152.111 116.966 151.565C117.807 151.014 118.778 150.739 119.881 150.739C120.733 150.739 121.409 150.881 121.909 151.165C122.415 151.443 122.801 151.761 123.068 152.119C123.341 152.472 123.551 152.761 123.699 152.989H123.903V150.909H125.847V164.375C125.847 165.5 125.591 166.415 125.08 167.119C124.574 167.83 123.892 168.349 123.034 168.679C122.182 169.014 121.233 169.182 120.188 169.182ZM120.119 161.989C120.926 161.989 121.608 161.804 122.165 161.435C122.722 161.065 123.145 160.534 123.435 159.841C123.724 159.148 123.869 158.318 123.869 157.352C123.869 156.409 123.727 155.577 123.443 154.855C123.159 154.134 122.739 153.568 122.182 153.159C121.625 152.75 120.938 152.545 120.119 152.545C119.267 152.545 118.557 152.761 117.989 153.193C117.426 153.625 117.003 154.205 116.719 154.932C116.44 155.659 116.301 156.466 116.301 157.352C116.301 158.261 116.443 159.065 116.727 159.764C117.017 160.457 117.443 161.003 118.006 161.401C118.574 161.793 119.278 161.989 120.119 161.989ZM135.017 164.273C133.756 164.273 132.668 163.994 131.753 163.438C130.844 162.875 130.142 162.091 129.648 161.085C129.159 160.074 128.915 158.898 128.915 157.557C128.915 156.216 129.159 155.034 129.648 154.011C130.142 152.983 130.83 152.182 131.71 151.608C132.597 151.028 133.631 150.739 134.812 150.739C135.494 150.739 136.168 150.852 136.832 151.08C137.497 151.307 138.102 151.676 138.648 152.188C139.193 152.693 139.628 153.364 139.952 154.199C140.276 155.034 140.438 156.062 140.438 157.284V158.136H130.347V156.398H138.392C138.392 155.659 138.244 155 137.949 154.42C137.659 153.841 137.244 153.384 136.705 153.048C136.17 152.713 135.54 152.545 134.812 152.545C134.011 152.545 133.318 152.744 132.733 153.142C132.153 153.534 131.707 154.045 131.395 154.676C131.082 155.307 130.926 155.983 130.926 156.705V157.864C130.926 158.852 131.097 159.69 131.438 160.378C131.784 161.06 132.264 161.58 132.878 161.938C133.491 162.29 134.205 162.466 135.017 162.466C135.545 162.466 136.023 162.392 136.449 162.244C136.881 162.091 137.253 161.864 137.565 161.562C137.878 161.256 138.119 160.875 138.29 160.42L140.233 160.966C140.028 161.625 139.685 162.205 139.202 162.705C138.719 163.199 138.122 163.585 137.412 163.864C136.702 164.136 135.903 164.273 135.017 164.273ZM160.065 150.909C159.963 150.045 159.548 149.375 158.821 148.898C158.094 148.42 157.202 148.182 156.145 148.182C155.372 148.182 154.696 148.307 154.116 148.557C153.543 148.807 153.094 149.151 152.77 149.588C152.452 150.026 152.293 150.523 152.293 151.08C152.293 151.545 152.403 151.946 152.625 152.281C152.852 152.611 153.142 152.886 153.494 153.108C153.847 153.324 154.216 153.503 154.602 153.645C154.989 153.781 155.344 153.892 155.668 153.977L157.44 154.455C157.895 154.574 158.401 154.739 158.957 154.949C159.52 155.159 160.057 155.446 160.568 155.81C161.085 156.168 161.511 156.628 161.847 157.19C162.182 157.753 162.349 158.443 162.349 159.261C162.349 160.205 162.102 161.057 161.608 161.818C161.119 162.58 160.403 163.185 159.46 163.634C158.523 164.082 157.384 164.307 156.043 164.307C154.793 164.307 153.71 164.105 152.795 163.702C151.886 163.298 151.17 162.736 150.648 162.014C150.131 161.293 149.838 160.455 149.77 159.5H151.952C152.009 160.159 152.23 160.705 152.616 161.136C153.009 161.562 153.503 161.881 154.099 162.091C154.702 162.295 155.349 162.398 156.043 162.398C156.849 162.398 157.574 162.267 158.216 162.006C158.858 161.739 159.366 161.369 159.741 160.898C160.116 160.42 160.304 159.864 160.304 159.227C160.304 158.648 160.142 158.176 159.818 157.812C159.494 157.449 159.068 157.153 158.54 156.926C158.011 156.699 157.44 156.5 156.827 156.33L154.679 155.716C153.315 155.324 152.236 154.764 151.44 154.037C150.645 153.31 150.247 152.358 150.247 151.182C150.247 150.205 150.511 149.352 151.04 148.625C151.574 147.892 152.29 147.324 153.188 146.92C154.091 146.511 155.099 146.307 156.213 146.307C157.338 146.307 158.338 146.509 159.213 146.912C160.088 147.31 160.781 147.855 161.293 148.548C161.81 149.241 162.082 150.028 162.111 150.909H160.065ZM171.04 164.273C169.779 164.273 168.691 163.994 167.776 163.438C166.867 162.875 166.165 162.091 165.671 161.085C165.183 160.074 164.938 158.898 164.938 157.557C164.938 156.216 165.183 155.034 165.671 154.011C166.165 152.983 166.853 152.182 167.734 151.608C168.62 151.028 169.654 150.739 170.836 150.739C171.518 150.739 172.191 150.852 172.856 151.08C173.521 151.307 174.126 151.676 174.671 152.188C175.217 152.693 175.651 153.364 175.975 154.199C176.299 155.034 176.461 156.062 176.461 157.284V158.136H166.37V156.398H174.415C174.415 155.659 174.268 155 173.972 154.42C173.683 153.841 173.268 153.384 172.728 153.048C172.194 152.713 171.563 152.545 170.836 152.545C170.035 152.545 169.342 152.744 168.756 153.142C168.177 153.534 167.731 154.045 167.418 154.676C167.106 155.307 166.95 155.983 166.95 156.705V157.864C166.95 158.852 167.12 159.69 167.461 160.378C167.808 161.06 168.288 161.58 168.901 161.938C169.515 162.29 170.228 162.466 171.04 162.466C171.569 162.466 172.046 162.392 172.472 162.244C172.904 162.091 173.276 161.864 173.589 161.562C173.901 161.256 174.143 160.875 174.313 160.42L176.256 160.966C176.052 161.625 175.708 162.205 175.225 162.705C174.742 163.199 174.146 163.585 173.435 163.864C172.725 164.136 171.927 164.273 171.04 164.273ZM181.532 146.545V164H179.521V146.545H181.532ZM190.705 164.273C189.443 164.273 188.355 163.994 187.44 163.438C186.531 162.875 185.83 162.091 185.335 161.085C184.847 160.074 184.602 158.898 184.602 157.557C184.602 156.216 184.847 155.034 185.335 154.011C185.83 152.983 186.517 152.182 187.398 151.608C188.284 151.028 189.318 150.739 190.5 150.739C191.182 150.739 191.855 150.852 192.52 151.08C193.185 151.307 193.79 151.676 194.335 152.188C194.881 152.693 195.315 153.364 195.639 154.199C195.963 155.034 196.125 156.062 196.125 157.284V158.136H186.034V156.398H194.08C194.08 155.659 193.932 155 193.636 154.42C193.347 153.841 192.932 153.384 192.392 153.048C191.858 152.713 191.227 152.545 190.5 152.545C189.699 152.545 189.006 152.744 188.42 153.142C187.841 153.534 187.395 154.045 187.082 154.676C186.77 155.307 186.614 155.983 186.614 156.705V157.864C186.614 158.852 186.784 159.69 187.125 160.378C187.472 161.06 187.952 161.58 188.565 161.938C189.179 162.29 189.892 162.466 190.705 162.466C191.233 162.466 191.71 162.392 192.136 162.244C192.568 162.091 192.94 161.864 193.253 161.562C193.565 161.256 193.807 160.875 193.977 160.42L195.92 160.966C195.716 161.625 195.372 162.205 194.889 162.705C194.406 163.199 193.81 163.585 193.099 163.864C192.389 164.136 191.591 164.273 190.705 164.273ZM204.503 164.273C203.276 164.273 202.219 163.983 201.332 163.403C200.446 162.824 199.764 162.026 199.287 161.009C198.81 159.991 198.571 158.83 198.571 157.523C198.571 156.193 198.815 155.02 199.304 154.003C199.798 152.98 200.486 152.182 201.366 151.608C202.253 151.028 203.287 150.739 204.469 150.739C205.389 150.739 206.219 150.909 206.957 151.25C207.696 151.591 208.301 152.068 208.773 152.682C209.244 153.295 209.537 154.011 209.651 154.83H207.639C207.486 154.233 207.145 153.705 206.616 153.244C206.094 152.778 205.389 152.545 204.503 152.545C203.719 152.545 203.031 152.75 202.44 153.159C201.855 153.562 201.398 154.134 201.068 154.872C200.744 155.605 200.582 156.466 200.582 157.455C200.582 158.466 200.741 159.347 201.06 160.097C201.384 160.847 201.838 161.429 202.423 161.844C203.014 162.259 203.707 162.466 204.503 162.466C205.026 162.466 205.5 162.375 205.926 162.193C206.352 162.011 206.713 161.75 207.009 161.409C207.304 161.068 207.514 160.659 207.639 160.182H209.651C209.537 160.955 209.256 161.651 208.807 162.27C208.364 162.884 207.776 163.372 207.043 163.736C206.315 164.094 205.469 164.273 204.503 164.273ZM218.284 150.909V152.614H211.5V150.909H218.284ZM213.477 147.773H215.489V160.25C215.489 160.818 215.571 161.244 215.736 161.528C215.906 161.807 216.122 161.994 216.384 162.091C216.651 162.182 216.932 162.227 217.227 162.227C217.449 162.227 217.631 162.216 217.773 162.193C217.915 162.165 218.028 162.142 218.114 162.125L218.523 163.932C218.386 163.983 218.196 164.034 217.952 164.085C217.707 164.142 217.398 164.17 217.023 164.17C216.455 164.17 215.898 164.048 215.352 163.804C214.813 163.56 214.364 163.188 214.006 162.688C213.653 162.188 213.477 161.557 213.477 160.795V147.773ZM226.658 164.273C225.396 164.273 224.308 163.994 223.393 163.438C222.484 162.875 221.783 162.091 221.288 161.085C220.8 160.074 220.555 158.898 220.555 157.557C220.555 156.216 220.8 155.034 221.288 154.011C221.783 152.983 222.47 152.182 223.351 151.608C224.237 151.028 225.271 150.739 226.453 150.739C227.135 150.739 227.808 150.852 228.473 151.08C229.138 151.307 229.743 151.676 230.288 152.188C230.834 152.693 231.268 153.364 231.592 154.199C231.916 155.034 232.078 156.062 232.078 157.284V158.136H221.987V156.398H230.033C230.033 155.659 229.885 155 229.589 154.42C229.3 153.841 228.885 153.384 228.345 153.048C227.811 152.713 227.18 152.545 226.453 152.545C225.652 152.545 224.959 152.744 224.374 153.142C223.794 153.534 223.348 154.045 223.036 154.676C222.723 155.307 222.567 155.983 222.567 156.705V157.864C222.567 158.852 222.737 159.69 223.078 160.378C223.425 161.06 223.905 161.58 224.518 161.938C225.132 162.29 225.845 162.466 226.658 162.466C227.186 162.466 227.663 162.392 228.089 162.244C228.521 162.091 228.893 161.864 229.206 161.562C229.518 161.256 229.76 160.875 229.93 160.42L231.874 160.966C231.669 161.625 231.325 162.205 230.842 162.705C230.359 163.199 229.763 163.585 229.053 163.864C228.342 164.136 227.544 164.273 226.658 164.273ZM240.081 164.273C238.99 164.273 238.027 163.997 237.192 163.446C236.357 162.889 235.703 162.105 235.232 161.094C234.76 160.077 234.524 158.875 234.524 157.489C234.524 156.114 234.76 154.92 235.232 153.909C235.703 152.898 236.359 152.116 237.2 151.565C238.041 151.014 239.013 150.739 240.115 150.739C240.967 150.739 241.641 150.881 242.135 151.165C242.635 151.443 243.016 151.761 243.277 152.119C243.544 152.472 243.751 152.761 243.899 152.989H244.07V146.545H246.081V164H244.138V161.989H243.899C243.751 162.227 243.541 162.528 243.268 162.892C242.996 163.25 242.607 163.571 242.101 163.855C241.595 164.134 240.922 164.273 240.081 164.273ZM240.354 162.466C241.161 162.466 241.842 162.256 242.399 161.835C242.956 161.409 243.379 160.821 243.669 160.071C243.959 159.315 244.104 158.443 244.104 157.455C244.104 156.477 243.962 155.622 243.678 154.889C243.393 154.151 242.973 153.577 242.416 153.168C241.859 152.753 241.172 152.545 240.354 152.545C239.501 152.545 238.791 152.764 238.223 153.202C237.661 153.634 237.237 154.222 236.953 154.966C236.675 155.705 236.536 156.534 236.536 157.455C236.536 158.386 236.678 159.233 236.962 159.994C237.251 160.75 237.678 161.352 238.24 161.801C238.808 162.244 239.513 162.466 240.354 162.466Z" fill="black"/>
</svg>
