<svg width="28" height="28" viewBox="0 0 28 28" fill="none" xmlns="http://www.w3.org/2000/svg">
<path d="M19.7154 22.179C19.3537 22.179 18.992 22.074 18.677 21.864L17.557 21.129C17.242 20.919 17.0904 20.5224 17.1954 20.1607C17.277 19.8924 17.312 19.5773 17.312 19.2273V14.479C17.312 12.5773 16.122 11.3874 14.2204 11.3874H6.29869C6.15869 11.3874 6.03036 11.3991 5.90203 11.4107C5.65703 11.4224 5.4237 11.3407 5.23704 11.1774C5.05037 11.014 4.95703 10.7807 4.95703 10.5357V7.30404C4.95703 3.87404 7.36036 1.4707 10.7904 1.4707H20.707C24.137 1.4707 26.5404 3.87404 26.5404 7.30404V13.254C26.5404 14.9457 25.9687 16.439 24.9187 17.4657C24.0787 18.3173 22.912 18.8657 21.582 19.029V20.324C21.582 21.024 21.197 21.6541 20.5904 21.9807C20.3104 22.1091 20.007 22.179 19.7154 22.179ZM19.0154 19.9857L19.7737 20.4174C19.8437 20.3824 19.8437 20.324 19.8437 20.3123V18.2007C19.8437 17.7223 20.2404 17.3257 20.7187 17.3257C21.9437 17.3257 22.982 16.9407 23.6937 16.2174C24.4287 15.4941 24.802 14.4673 24.802 13.2423V7.29236C24.802 4.80736 23.2037 3.20903 20.7187 3.20903H10.802C8.31702 3.20903 6.71869 4.80736 6.71869 7.29236V9.62569H14.232C17.0787 9.62569 19.0737 11.6207 19.0737 14.4674V19.2157C19.062 19.484 19.0504 19.7407 19.0154 19.9857Z" fill="white"/>
<path d="M7.08037 26.5417C6.82371 26.5417 6.55537 26.4834 6.31037 26.355C5.76204 26.0634 5.42369 25.5033 5.42369 24.8733V23.9867C4.39702 23.8233 3.48704 23.3916 2.81037 22.715C1.9237 21.8283 1.45703 20.615 1.45703 19.215V14.4667C1.45703 11.83 3.18369 9.89336 5.75036 9.64836C5.93702 9.63669 6.11202 9.625 6.29869 9.625H14.2204C17.067 9.625 19.062 11.62 19.062 14.4667V19.215C19.062 19.7283 19.0037 20.2067 18.8754 20.6383C18.3504 22.7383 16.5654 24.0567 14.2204 24.0567H11.3154L8.01369 26.25C7.73369 26.4483 7.40704 26.5417 7.08037 26.5417ZM6.29869 11.375C6.15869 11.375 6.03036 11.3867 5.90203 11.3984C4.22203 11.55 3.20703 12.705 3.20703 14.4667V19.215C3.20703 20.1483 3.4987 20.93 4.04703 21.4783C4.5837 22.015 5.36536 22.3067 6.29869 22.3067C6.77702 22.3067 7.17369 22.7033 7.17369 23.1817V24.71L10.557 22.4583C10.697 22.365 10.872 22.3067 11.047 22.3067H14.2204C15.7604 22.3067 16.8454 21.5367 17.1837 20.1833C17.2654 19.8917 17.312 19.565 17.312 19.215V14.4667C17.312 12.565 16.122 11.375 14.2204 11.375H6.29869Z" fill="white"/>
</svg>
